# File created by Blade
# Date/Time:  Tue Jan 27 20:12:12 2015
#---------------------------------------------------------
:version 1.10
:name HOM
:units
  mass 1.0
  length 1.000000
  angle deg
:documentation
     Acclaim Skeleton File
:root
   axis xyz
   order TX TY TZ RX RY RZ
   position 0.000000 0.000000 0.000000
   orientation 0 0 0
:bonedata
   begin
      id 1
      name Spine_dum
      direction 0.000000 1.000000 0.000000
      length 6.116652
      axis 0.0 0.0 0.0 xyz
   end
   begin
      id 2
      name LeftUpLeg_dum
      direction 1.000000 0.000000 0.000000
      length 4.711765
      axis 0.0 0.0 0.0 xyz
   end
   begin
      id 3
      name RightUpLeg_dum
      direction -1.000000 0.000000 0.000000
      length 4.711765
      axis 0.0 0.0 0.0 xyz
   end
   begin
      id 4
      name Spine
      direction 0.000000 1.000000 0.000000
      length 0.000000
      axis 0.0 0.0 0.0 xyz
      dof rx ry rz
   end
   begin
      id 5
      name Spine_dum1
      direction 0.000000 1.000000 0.000000
      length 15.225563
      axis 0.0 0.0 0.0 xyz
   end
   begin
      id 6
      name Spine_dum2
      direction 0.000000 1.000000 0.000000
      length 8.977654
      axis 0.0 0.0 0.0 xyz
   end
   begin
      id 7
      name Spine_dum3
      direction 0.000000 1.000000 0.000000
      length 8.977654
      axis 0.0 0.0 0.0 xyz
   end
   begin
      id 8
      name Head
      direction 0.000000 1.000000 0.000000
      length 4.527550
      axis 0.0 0.0 0.0 xyz
      dof rx ry rz
   end
   begin
      id 9
      name LeftShoulder
      direction 1.000000 0.000000 0.000000
      length 7.110130
      axis 0.0 0.0 -90.0 xyz
      dof rx ry rz
   end
   begin
      id 10
      name LeftArm
      direction 1.000000 0.000000 0.000000
      length 10.398341
      axis 0.0 0.0 -90.0 xyz
      dof rx ry rz
   end
   begin
      id 11
      name LeftForeArm
      direction 1.000000 0.000000 0.000000
      length 8.888997
      axis 0.0 0.0 -90.0 xyz
      dof ry rz rx
   end
   begin
      id 12
      name LeftHand
      direction 0.000000 0.000000 0.000000
      length 0.000000
      axis 0.0 0.0 -90.0 xyz
      dof rx ry rz
   end
   begin
      id 13
      name LeftHand_dum1
      direction 0.000000 0.000000 0.000000
      length 0.000000
      axis 0.0 0.0 -90.0 xyz
   end
   begin
      id 14
      name LeftHand_dum2
      direction 1.000000 0.000000 0.000000
      length 3.937000
      axis 0.0 0.0 -90.0 xyz
   end
   begin
      id 15
      name LeftHandThumb1
      direction 0.000000 0.000000 1.000000
      length 3.937000
      axis 0.0 0.0 -90.0 xyz
      dof rx rz ry
   end
   begin
      id 16
      name RightShoulder
      direction -1.000000 0.000000 0.000000
      length 7.110130
      axis 0.0 0.0 90.0 xyz
      dof rx ry rz
   end
   begin
      id 17
      name RightArm
      direction -1.000000 0.000000 0.000000
      length 10.398341
      axis 0.0 0.0 90.0 xyz
      dof rx ry rz
   end
   begin
      id 18
      name RightForeArm
      direction -1.000000 0.000000 0.000000
      length 8.888997
      axis 0.0 0.0 90.0 xyz
      dof ry rz rx
   end
   begin
      id 19
      name RightHand
      direction 0.000000 0.000000 0.000000
      length 0.000000
      axis 0.0 0.0 90.0 xyz
      dof rx ry rz
   end
   begin
      id 20
      name RightHand_dum1
      direction 0.000000 0.000000 0.000000
      length 0.000000
      axis 0.0 0.0 90.0 xyz
   end
   begin
      id 21
      name RightHand_dum2
      direction -1.000000 0.000000 0.000000
      length 3.937000
      axis 0.0 0.0 90.0 xyz
   end
   begin
      id 22
      name RightHandThumb1
      direction 0.000000 0.000000 1.000000
      length 3.937000
      axis 0.0 0.0 90.0 xyz
      dof rx rz ry
   end
   begin
      id 23
      name LeftUpLeg
      direction 0.000000 -1.000000 0.000000
      length 15.510451
      axis 0.0 0.0 0.0 xyz
      dof rx ry rz
   end
   begin
      id 24
      name LeftLeg
      direction 0.000000 -1.000000 0.000000
      length 14.858061
      axis 0.0 0.0 0.0 xyz
      dof rx ry rz
   end
   begin
      id 25
      name LeftFoot
      direction 0.000000 -0.258819 0.965926
      length 5.128852
      axis 15.0 0.0 0.0 xyz
      dof rx ry rz
   end
   begin
      id 26
      name LeftToeBase
      direction 0.000000 0.000000 1.000000
      length 2.952750
      axis 0.0 0.0 0.0 xyz
      dof rx ry rz
   end
   begin
      id 27
      name RightUpLeg
      direction 0.000000 -1.000000 0.000000
      length 15.510451
      axis 0.0 0.0 0.0 xyz
      dof rx ry rz
   end
   begin
      id 28
      name RightLeg
      direction 0.000000 -1.000000 0.000000
      length 14.858061
      axis 0.0 0.0 0.0 xyz
      dof rx ry rz
   end
   begin
      id 29
      name RightFoot
      direction 0.000000 -0.258819 0.965926
      length 5.128852
      axis 15.0 0.0 0.0 xyz
      dof rx ry rz
   end
   begin
      id 30
      name RightToeBase
      direction 0.000000 0.000000 1.000000
      length 2.952750
      axis 0.0 0.0 0.0 xyz
      dof rx ry rz
   end
:hierarchy
   begin
      root Spine_dum LeftUpLeg_dum RightUpLeg_dum
      Spine_dum Spine
      LeftUpLeg_dum LeftUpLeg
      RightUpLeg_dum RightUpLeg
      Spine Spine_dum1 Spine_dum2 Spine_dum3
      Spine_dum1 Head
      Spine_dum2 LeftShoulder
      Spine_dum3 RightShoulder
      LeftShoulder LeftArm
      LeftArm LeftForeArm
      LeftForeArm LeftHand
      LeftHand LeftHand_dum1 LeftHand_dum2
      LeftHand_dum1 LeftHandThumb1
      RightShoulder RightArm
      RightArm RightForeArm
      RightForeArm RightHand
      RightHand RightHand_dum1 RightHand_dum2
      RightHand_dum1 RightHandThumb1
      LeftUpLeg LeftLeg
      LeftLeg LeftFoot
      LeftFoot LeftToeBase
      RightUpLeg RightLeg
      RightLeg RightFoot
      RightFoot RightToeBase
   end

# File created by Blade
# Date/Time:  Tue Jan 27 20:12:02 2015
# Frame Rate: 120.000 fps
#------------------------------------------------------
:FULLY-SPECIFIED
:DEGREES
1
root 4.973242 32.337631 -2.630112 -1.648995 0.437873 1.107513
Spine 4.560102 4.259881 -1.458500
Head -14.395777 -3.847132 1.945410
LeftShoulder -13.218800 -3.488987 43.581827
LeftArm 8.158902 -6.201496 -38.948798
LeftForeArm 14.711999 0.000000 -10.704005
LeftHand 5.185424 0.000000 -9.772654
LeftHandThumb1 -26.253704 0.000000 33.147579
RightShoulder -20.288310 -17.415461 -38.934132
RightArm 17.280152 21.769444 44.826379
RightForeArm -16.593764 -0.000000 3.169834
RightHand 14.567426 -0.000000 13.754639
RightHandThumb1 -24.326973 -0.000000 -32.862282
LeftUpLeg 7.853774 -4.515685 -3.233992
LeftLeg 1.214765 -0.000000 -0.000000
LeftFoot -16.994082 13.417943 -19.300173
LeftToeBase 19.516784 -0.000000 -0.000000
RightUpLeg 6.934468 -3.864885 4.122112
RightLeg 1.062557 -0.000000 -0.000000
RightFoot -14.042704 -14.164271 15.974541
RightToeBase 9.470270 -0.000000 -0.000000
2
root 4.971688 32.337313 -2.632093 -1.654412 0.443848 1.107039
Spine 4.568962 4.280310 -1.461762
Head -14.389138 -3.863741 1.906316
LeftShoulder -13.188590 -3.554260 43.568925
LeftArm 8.126911 -6.205729 -38.941919
LeftForeArm 14.634531 -0.000000 -10.665146
LeftHand 5.206171 -0.000000 -9.718384
LeftHandThumb1 -26.253704 0.000000 33.147579
RightShoulder -20.279500 -17.418927 -38.928447
RightArm 17.238931 21.763159 44.879626
RightForeArm -16.527006 -0.000000 3.308644
RightHand 14.370724 0.000000 13.582701
RightHandThumb1 -24.326973 -0.000000 -32.862282
LeftUpLeg 7.857156 -4.534428 -3.231531
LeftLeg 1.211403 -0.000000 -0.000000
LeftFoot -16.997332 13.425225 -19.297821
LeftToeBase 19.595878 -0.000000 -0.000000
RightUpLeg 6.942622 -3.844456 4.127214
RightLeg 1.048258 -0.000000 -0.000000
RightFoot -14.020242 -14.202576 15.936009
RightToeBase 9.345202 -0.000000 -0.000000
3
root 4.970495 32.337533 -2.634952 -1.651562 0.449749 1.109240
Spine 4.574178 4.264732 -1.466957
Head -14.421638 -3.839431 1.921602
LeftShoulder -13.199460 -3.558098 43.544078
LeftArm 8.123460 -6.221101 -38.947226
LeftForeArm 14.533035 -0.000000 -10.598074
LeftHand 5.217850 -0.000000 -9.621242
LeftHandThumb1 -26.253704 0.000000 33.147579
RightShoulder -20.272916 -17.434134 -38.914511
RightArm 17.268156 21.826501 44.962686
RightForeArm -16.477518 -0.000000 3.398572
RightHand 14.423130 -0.000000 13.567533
RightHandThumb1 -24.326973 -0.000000 -32.862282
LeftUpLeg 7.840115 -4.529490 -3.229693
LeftLeg 1.226735 -0.000000 -0.000000
LeftFoot -17.002528 13.413428 -19.312325
LeftToeBase 19.671154 -0.000000 -0.000000
RightUpLeg 6.933012 -3.855193 4.127076
RightLeg 1.053333 -0.000000 -0.000000
RightFoot -14.027843 -14.202335 15.937477
RightToeBase 9.314248 -0.000000 -0.000000
4
root 4.968988 32.337393 -2.637401 -1.650584 0.458187 1.108140
Spine 4.580192 4.269731 -1.467206
Head -14.440856 -3.861473 1.912976
LeftShoulder -13.191698 -3.557702 43.513842
LeftArm 8.120538 -6.307020 -38.958425
LeftForeArm 14.549622 -0.000000 -10.492949
LeftHand 5.197548 0.000000 -9.561044
LeftHandThumb1 -26.253704 0.000000 33.147579
RightShoulder -20.273996 -17.404394 -38.890744
RightArm 17.225587 21.882045 45.002617
RightForeArm -16.352033 0.000000 3.539874
RightHand 14.485185 -0.000000 13.561783
RightHandThumb1 -24.326973 -0.000000 -32.862282
LeftUpLeg 7.830911 -4.524994 -3.226601
LeftLeg 1.234151 -0.000000 -0.000000
LeftFoot -16.995928 13.409356 -19.299364
LeftToeBase 19.542579 -0.000000 -0.000000
RightUpLeg 6.926451 -3.866269 4.132157
RightLeg 1.052587 -0.000000 -0.000000
RightFoot -14.018645 -14.208037 15.936638
RightToeBase 9.300738 -0.000000 -0.000000
5
root 4.968034 32.337485 -2.639640 -1.649709 0.457552 1.107105
Spine 4.584085 4.269466 -1.469288
Head -14.453746 -3.865291 1.910506
LeftShoulder -13.190730 -3.560719 43.498317
LeftArm 8.087428 -6.381630 -38.990128
LeftForeArm 14.664452 -0.000000 -10.318876
LeftHand 5.100920 -0.000000 -9.485924
LeftHandThumb1 -26.253704 0.000000 33.147579
RightShoulder -20.266851 -17.365389 -38.877620
RightArm 17.181557 21.961506 45.076523
RightForeArm -16.342107 0.000000 3.724265
RightHand 14.508382 -0.000000 13.535152
RightHandThumb1 -24.326973 -0.000000 -32.862282
LeftUpLeg 7.824765 -4.524515 -3.223604
LeftLeg 1.234288 -0.000000 -0.000000
LeftFoot -16.994979 13.420613 -19.290722
LeftToeBase 19.537842 -0.000000 -0.000000
RightUpLeg 6.918223 -3.853754 4.136325
RightLeg 1.062759 -0.000000 -0.000000
RightFoot -14.024553 -14.211594 15.947214
RightToeBase 9.282970 -0.000000 -0.000000
6
root 4.967567 32.337085 -2.641450 -1.653490 0.466231 1.109831
Spine 4.596710 4.269443 -1.472947
Head -14.473091 -3.884109 1.901063
LeftShoulder -13.198364 -3.579866 43.480611
LeftArm 8.059079 -6.414610 -39.017124
LeftForeArm 14.771722 -0.000000 -10.123235
LeftHand 5.120056 -0.000000 -9.431749
LeftHandThumb1 -26.253704 0.000000 33.147579
RightShoulder -20.283992 -17.322621 -38.860925
RightArm 17.139728 21.943415 45.134811
RightForeArm -16.275814 -0.000000 3.938064
RightHand 14.455867 0.000000 13.399909
RightHandThumb1 -24.326973 -0.000000 -32.862282
LeftUpLeg 7.821599 -4.567600 -3.231720
LeftLeg 1.250396 -0.000000 -0.000000
LeftFoot -17.015113 13.419577 -19.372768
LeftToeBase 19.471055 -0.000000 -0.000000
RightUpLeg 6.915290 -3.861205 4.134652
RightLeg 1.069351 -0.000000 -0.000000
RightFoot -14.027570 -14.216611 15.937477
RightToeBase 9.253050 -0.000000 -0.000000
7
root 4.966502 32.336909 -2.643780 -1.656768 0.474537 1.108292
Spine 4.606197 4.252550 -1.477376
Head -14.481458 -3.870140 1.904098
LeftShoulder -13.202001 -3.576139 43.466704
LeftArm 8.052052 -6.299752 -39.040858
LeftForeArm 14.756011 0.000000 -9.984700
LeftHand 5.201736 0.000000 -9.359298
LeftHandThumb1 -26.253704 0.000000 33.147579
RightShoulder -20.287258 -17.345443 -38.830573
RightArm 17.166149 21.983541 45.242527
RightForeArm -16.193087 -0.000000 4.137348
RightHand 14.375258 -0.000000 13.266561
RightHandThumb1 -24.326973 -0.000000 -32.862282
LeftUpLeg 7.815956 -4.570285 -3.226580
LeftLeg 1.258346 -0.000000 -0.000000
LeftFoot -17.024142 13.425867 -19.310881
LeftToeBase 19.478827 -0.000000 -0.000000
RightUpLeg 6.909741 -3.882065 4.136117
RightLeg 1.082180 -0.000000 -0.000000
RightFoot -14.040280 -14.193898 15.940550
RightToeBase 9.495335 -0.000000 -0.000000
8
root 4.965415 32.336532 -2.645463 -1.658807 0.480521 1.112983
Spine 4.610947 4.248669 -1.493102
Head -14.483299 -3.879809 1.915569
LeftShoulder -13.213804 -3.544596 43.452301
LeftArm 8.040279 -6.309394 -39.086278
LeftForeArm 14.877714 -0.000000 -9.726445
LeftHand 5.078464 -0.000000 -9.286260
LeftHandThumb1 -26.253704 0.000000 33.147579
RightShoulder -20.271715 -17.270337 -38.794880
RightArm 17.074825 22.039823 45.290118
RightForeArm -16.189869 -0.000000 4.391602
RightHand 14.349661 -0.000000 13.194756
RightHandThumb1 -24.326973 -0.000000 -32.862282
LeftUpLeg 7.813356 -4.577059 -3.228170
LeftLeg 1.251714 -0.000000 -0.000000
LeftFoot -17.007467 13.423793 -19.338011
LeftToeBase 19.504041 -0.000000 -0.000000
RightUpLeg 6.907264 -3.884654 4.135785
RightLeg 1.083942 -0.000000 -0.000000
RightFoot -14.037418 -14.209921 15.918526
RightToeBase 9.349713 -0.000000 -0.000000
9
root 4.962438 32.336448 -2.647412 -1.664349 0.484003 1.096783
Spine 4.621989 4.246583 -1.486161
Head -14.489682 -3.893822 1.931547
LeftShoulder -13.216241 -3.508427 43.435149
LeftArm 8.044426 -6.215276 -39.133130
LeftForeArm 14.857711 -0.000000 -9.512245
LeftHand 5.154113 -0.000000 -9.048903
LeftHandThumb1 -26.253704 0.000000 33.147579
RightShoulder -20.280769 -17.257392 -38.738608
RightArm 17.037290 22.005805 45.344925
RightForeArm -16.077020 -0.000000 4.650897
RightHand 14.458149 0.000000 12.949204
RightHandThumb1 -24.326973 -0.000000 -32.862282
LeftUpLeg 7.815324 -4.586573 -3.207286
LeftLeg 1.250614 -0.000000 -0.000000
LeftFoot -17.019241 13.438370 -19.326696
LeftToeBase 19.514266 -0.000000 -0.000000
RightUpLeg 6.902843 -3.904392 4.154979
RightLeg 1.094117 -0.000000 -0.000000
RightFoot -14.027349 -14.201310 15.927062
RightToeBase 9.281495 -0.000000 -0.000000
